<svg xmlns="http://www.w3.org/2000/svg" width="391.595" height="202.873" viewBox="0 0 391.595 202.873"><defs><style>.a{fill:#fff;}.b{fill:#ffd600;}.c{fill:#000f1e;}</style></defs><g transform="translate(0 0.03)"><path class="a" d="M186.853,72.045c0-15.83.015-52.494.015-65.284,0-4.532,1.4-6.752,12.713-6.752,11.451,0,12.7,2.22,12.7,6.752,0,19.206-.046,24.225-.046,37.759,0,9.018.03,18.431.03,28.346,0,3.726,3.574,8.546,8.9,2.889C224.779,71.924,246.4,46.467,251.6,40.43c3.087-3.574,4.365-3.954,8.029-3.954,2.068,0,1.718-.106,4.212-.106,6.828,0,4.653,4.866,4.3,5.368-4.714,6.843-17.762,25.061-24.666,35.341-3.65,5.429-.046,9.033,1.353,11.451C247.422,93,255.71,105.592,263.5,116.982c4.243,6.2,12.485,19.526,14.021,21.716,7.239,10.25,2.737,12.485-7.375,12.485-12.85,0-14.34.03-17.564-5.277-4.942-8.151-16.484-27.129-19.724-32.589-2.646-4.486-4.577-8.2-6.828-8.121-2.387.076-3.7,2.235-6.569,6.357-5.824,8.318-7.162,10.28-7.162,14.827,0,11.284-.091,6.9-.091,18.2,0,4.851-1.277,6.737-12.683,6.737-11.147,0-12.728-1.9-12.728-6.752C186.762,139.336,186.853,83.664,186.853,72.045Z" transform="translate(97.259 0.021)"/><path class="a" d="M2.464,189.554c-2.631-1.064-3.133-3.209-1.612-5.611a39.863,39.863,0,0,1,3.482-4.653C14.34,167.763,22.37,154.472,23.89,139.31a321.213,321.213,0,0,0,1.536-35.25c-.061-26.734-.061,8.105-.061-18.477V31.554c0-4.623,1.946-7.634,12.7-7.634,10.569,0,12.667,3.011,12.667,7.634,0,4.638,0,63.033.076,84.672.046,16.028.715,31.98-5.946,47.157-4.912,11.162-13.215,21.122-24.879,25.411C13.778,191.06,4.745,190.482,2.464,189.554Z" transform="translate(0 12.471)"/><circle class="a" cx="12.683" cy="12.683" r="12.683" transform="translate(25.426 0.046)"/><path class="a" d="M169.138,138.84c-13.261,0-20.879-1.338-29.608-6.539-12.7-7.573-27.22-23.875-27.22-49.848a61.484,61.484,0,0,1,13.428-39.128c9.6-12.211,22.217-18.264,37.8-19.237,14.219-.882,26.171,3.543,35.98,12.424,9.215,8.349,14.614,20.514,15.648,29.015,1.156,9.52-.9,14.553-10.2,14.644-7.619.061-21.3.091-32.163.243-14.082.2-14.112.061-28.391.061-4.547,0-4.836,2.007-4.623,6.25a72.9,72.9,0,0,0,3.817,21.244c3.422,9.6,10.751,21.077,24.057,21.077a27.666,27.666,0,0,0,19.647-8.759c5.018-5.87,7.543-13.291,9.337-21.5.912-4.167,5.14-5,11.253-3.1,5.277,1.642,7.345,4.38,6.235,8.47a47.1,47.1,0,0,1-10.158,19.906C194.884,135.342,180.027,138.824,169.138,138.84Zm16.606-68.112c6.1,0,7.041-1.916,6.083-8.273-1.627-10.751-5.262-20.742-12.865-26.6a20.705,20.705,0,0,0-26.278.745c-5.459,4.881-10.63,14.279-12.211,26.932-.715,5.733-.4,7.223,5.322,7.162C158.646,70.606,172.818,70.8,185.744,70.728Z" transform="translate(58.48 12.501)"/><path class="a" d="M96.968,138.84c-13.26,0-20.879-1.338-29.608-6.539-12.7-7.573-27.22-23.875-27.22-49.848A61.485,61.485,0,0,1,53.568,43.325c9.6-12.211,22.217-18.264,37.8-19.237,14.219-.882,26.171,3.543,35.98,12.424,9.215,8.349,14.614,20.514,15.648,29.015,1.156,9.52-.9,14.553-10.2,14.644-7.619.061-21.3.091-32.163.243-14.082.2-14.112.061-28.391.061-4.547,0-4.836,2.007-4.623,6.25a72.9,72.9,0,0,0,3.817,21.244c3.422,9.6,10.751,21.077,24.057,21.077a27.666,27.666,0,0,0,19.647-8.759c5.018-5.87,7.543-13.291,9.337-21.5.912-4.167,5.14-5,11.253-3.1,5.277,1.642,7.345,4.38,6.235,8.47a47.1,47.1,0,0,1-10.158,19.906C122.729,135.342,107.857,138.824,96.968,138.84ZM113.59,70.728c6.1,0,7.041-1.916,6.083-8.273-1.627-10.751-5.262-20.742-12.865-26.6A20.705,20.705,0,0,0,80.53,36.6C75.07,41.485,69.9,50.883,68.319,63.535c-.715,5.733-.4,7.223,5.322,7.162C86.476,70.606,100.664,70.8,113.59,70.728Z" transform="translate(20.901 12.501)"/><g transform="translate(364.587 -0.03)"><path class="b" d="M253.254,27.038c-2.1,0-4.364-.061-6.737-.182a6.934,6.934,0,0,1-6.6-6.615c-.122-2.372-.167-4.638-.167-6.737s.061-4.364.167-6.737a6.945,6.945,0,0,1,6.6-6.615c2.372-.122,4.638-.182,6.737-.182s4.364.061,6.737.182a6.934,6.934,0,0,1,6.6,6.615c.122,2.357.167,4.623.167,6.737,0,2.1-.061,4.364-.167,6.721a6.945,6.945,0,0,1-6.6,6.615c-2.357.152-4.623.2-6.737.2" transform="translate(-239.75 0.03)"/><path class="c" d="M253.241,11.2l3.984-3.984a1.624,1.624,0,0,0-2.3-2.3l-3.984,3.984L246.96,4.924a1.624,1.624,0,0,0-2.3,2.3l3.984,3.984-3.984,3.984a1.62,1.62,0,0,0,1.141,2.768,1.574,1.574,0,0,0,1.141-.471l3.984-3.984,3.984,3.984a1.6,1.6,0,0,0,1.141.471,1.574,1.574,0,0,0,1.141-.471,1.615,1.615,0,0,0,0-2.3Z" transform="translate(-237.441 2.36)"/></g></g></svg>